<?xml version="1.0" standalone="no"?>
<!DOCTYPE svg PUBLIC "-//W3C//DTD SVG 20010904//EN"
 "http://www.w3.org/TR/2001/REC-SVG-20010904/DTD/svg10.dtd">
<svg version="1.0" xmlns="http://www.w3.org/2000/svg"
 width="109.000000pt" height="109.000000pt" viewBox="0 0 109.000000 109.000000"
 preserveAspectRatio="xMidYMid meet">
<metadata>
Created by potrace 1.14, written by Peter Selinger 2001-2017
</metadata>
<g transform="translate(0.000000,109.000000) scale(0.100000,-0.100000)"
fill="#000000" stroke="none">
<path d="M481 1073 c-1 -6 -10 -10 -21 -8 -11 2 -22 0 -25 -5 -3 -5 -12 -7
-20 -3 -9 3 -22 0 -29 -6 -11 -9 -15 -9 -19 1 -4 10 -6 10 -6 1 -1 -7 -8 -13
-16 -13 -21 0 -115 -45 -154 -74 -19 -14 -31 -26 -26 -26 4 0 0 -9 -10 -20
-10 -11 -14 -20 -10 -20 4 0 1 -8 -8 -18 -16 -17 -62 -114 -58 -120 2 -2 -3
-13 -11 -25 -20 -33 -11 -142 13 -158 5 -3 10 -17 11 -32 1 -15 5 -27 8 -27
13 0 29 -59 27 -103 -1 -31 3 -51 12 -56 8 -5 11 -13 8 -18 -4 -6 3 -19 13
-31 11 -12 20 -25 20 -30 0 -5 19 -29 42 -54 47 -50 97 -68 122 -43 11 11 17
12 30 2 15 -11 15 -16 3 -39 -8 -15 -31 -43 -52 -62 -21 -20 -39 -46 -40 -60
l-3 -26 83 0 c48 0 87 5 90 11 4 5 12 8 18 6 6 -2 24 8 40 22 15 14 40 27 55
29 15 2 29 7 32 10 3 4 12 7 20 7 18 -2 62 23 73 42 10 16 37 17 37 2 0 -6 9
-9 20 -6 10 3 27 -1 36 -8 14 -9 23 -9 45 2 23 12 27 18 23 48 -2 19 -17 48
-33 66 -29 31 -30 50 -7 75 8 9 17 9 36 0 32 -14 76 -13 73 2 -2 7 4 9 14 5
11 -4 14 -3 9 5 -4 7 -2 12 6 12 9 0 9 3 -2 10 -13 9 -13 10 0 10 13 0 13 1 0
10 -8 5 -11 10 -7 10 4 0 -1 10 -12 22 -12 12 -19 30 -16 42 2 12 4 33 4 48 1
21 9 31 36 44 41 19 48 28 50 63 1 26 -15 51 -33 51 -17 0 -72 63 -72 82 0 10
-5 18 -12 18 -6 0 -9 3 -5 6 3 3 -1 23 -8 45 -8 22 -15 40 -15 42 0 1 -3 12
-6 25 -4 12 -10 22 -15 22 -5 0 -9 6 -9 14 0 8 -13 25 -29 39 -17 14 -27 28
-23 32 4 4 2 6 -3 4 -18 -4 -45 13 -45 28 0 8 -4 11 -10 8 -5 -3 -10 -1 -10 4
0 6 -11 11 -25 11 -14 0 -25 5 -25 12 0 6 -3 8 -7 5 -3 -4 -16 -1 -27 6 -12 7
-38 13 -59 13 -20 -1 -37 3 -37 8 0 4 -9 6 -20 3 -10 -3 -21 0 -24 7 -3 8 -5
8 -5 -1z"/>
</g>
</svg>
